<svg width="145" height="148" viewBox="0 0 145 148" fill="none" xmlns="http://www.w3.org/2000/svg">
<g opacity="0.64">
<path d="M64.4836 142.629L61.3122 141.361C59.8675 140.761 59.4094 139.669 59.9027 138.33C60.4313 136.956 61.5589 136.462 63.0036 137.062L65.2236 137.942L66.3864 134.947L67.3378 135.335L64.4836 142.629ZM64.9065 138.753L63.0036 137.978C61.9113 137.52 61.2417 137.837 60.8894 138.682C60.537 139.528 60.8541 140.198 61.9465 140.656L63.8493 141.431L64.9065 138.753Z" fill="#FFFCF6"/>
<path d="M55.0406 138.401L51.9045 136.463C50.636 135.687 50.3188 134.525 50.9531 133.467C51.4464 132.692 52.2217 132.199 53.1378 132.481C52.4331 131.847 52.6445 131.212 52.9969 130.508C53.3493 129.803 53.8426 129.098 53.7369 128.429L54.7235 129.063C54.794 129.486 54.2302 130.12 53.9483 130.825C53.6664 131.529 53.455 132.164 54.3007 132.727L56.4854 134.067L58.2472 131.248L59.1282 131.776L55.0406 138.401ZM54.1949 133.679C53.3845 133.15 52.5388 132.939 51.9398 133.89C51.5522 134.56 51.5874 135.229 52.3978 135.758L54.6178 137.132L56.0273 134.807L54.1949 133.679Z" fill="#FFFCF6"/>
<path d="M46.125 132.374L42.1079 128.78L42.7069 128.11L45.9488 131L47.605 129.132L44.5745 126.454L45.1736 125.785L48.204 128.533L50.0012 126.525L46.724 123.6L47.3231 122.931L51.3754 126.56L46.125 132.374Z" fill="#FFFCF6"/>
<path d="M38.8311 125.433L37.9853 124.305L41.6853 118.35L34.9901 120.394L34.1444 119.266L40.3463 114.474L40.9453 115.284L35.7654 119.266L42.4253 117.258L42.9891 117.962L39.2891 123.847L44.4691 119.865L45.0681 120.676L38.8311 125.433Z" fill="#FFFCF6"/>
<path d="M31.6423 115.004L31.149 114.088L38.0557 110.353L38.549 111.269L31.6423 115.004Z" fill="#FFFCF6"/>
<path d="M31.5003 102.177C33.3327 101.472 34.7422 102.177 35.3764 104.009C36.0812 105.912 35.6231 107.356 33.6498 108.061L28.9632 109.788L28.6108 108.801L33.2974 107.075C34.6012 106.617 35.0241 105.559 34.5307 104.291C34.0726 103.058 33.086 102.635 31.8174 103.128L27.1308 104.855L26.7785 103.868L31.5003 102.177Z" fill="#FFFCF6"/>
<path d="M25.4752 98.9688L25.2638 97.5593L31.3951 94.106L24.5238 92.6613L24.3124 91.2518L32.0646 90.0537L32.2055 91.0404L25.7923 92.027L32.5931 93.4718L32.6989 94.3527L26.638 97.7355L33.0512 96.7489L33.1922 97.7355L25.4752 98.9688Z" fill="#FFFCF6"/>
<path d="M24.3485 80.293L24.8771 76.6635C25.0885 75.1835 26.0047 74.4083 27.238 74.5845C28.1542 74.7254 28.8942 75.254 28.9999 76.2054C29.317 75.3245 29.9865 75.2188 30.7618 75.2892C31.537 75.3597 32.3827 75.5007 32.9465 75.1483L32.7703 76.3111C32.3827 76.5578 31.6075 76.2759 30.797 76.3111C30.0218 76.3111 29.3523 76.4168 29.2113 77.4035L28.8589 79.9406L32.1713 80.4339L32.0303 81.491L24.3485 80.293ZM28.3656 77.6149C28.5066 76.6283 28.3656 75.7826 27.238 75.6416C26.498 75.5359 25.8637 75.8883 25.7228 76.8045L25.3352 79.3768L28.0485 79.7644L28.3656 77.6149Z" fill="#FFFCF6"/>
<path d="M27.2021 66.4443C28.0126 64.0834 30.2678 63.5196 32.3116 64.2243C34.3202 64.8938 35.8002 66.7262 34.9897 69.0871C34.1792 71.448 31.924 72.0118 29.8802 71.3071C27.8364 70.6728 26.3917 68.8052 27.2021 66.4443ZM34.1088 68.8404C34.7078 67.0433 33.404 65.7395 31.924 65.2462C30.444 64.7529 28.6117 64.9643 28.0126 66.7614C27.4136 68.5585 28.7174 69.8623 30.1974 70.3556C31.6773 70.849 33.5097 70.6375 34.1088 68.8404Z" fill="#FFFCF6"/>
<path d="M32.0646 55.8038C33.298 53.6543 35.6589 53.5486 37.4913 54.6057C39.3237 55.6629 40.416 57.7419 39.1475 59.9266C37.8789 62.1113 35.5532 62.1818 33.7208 61.1247C31.8884 59.9971 30.796 57.9181 32.0646 55.8038ZM38.4075 59.4685C39.3589 57.8123 38.337 56.2971 36.9979 55.5219C35.6237 54.7115 33.8265 54.6057 32.8399 56.2267C31.8884 57.8828 32.9103 59.398 34.2494 60.1732C35.6237 60.9837 37.4208 61.0894 38.4075 59.4685Z" fill="#FFFCF6"/>
<path d="M36.8931 48.7903L37.8445 47.6979L44.3634 50.2703L41.1568 44.0332L42.1082 42.9408L47.9224 48.1912L47.2529 48.9312L42.3901 44.5618L45.5967 50.7284L44.9977 51.3979L38.514 48.8608L43.3768 53.2302L42.7073 53.9702L36.8931 48.7903Z" fill="#FFFCF6"/>
<path d="M50.9183 38.7127C50.143 37.867 49.2621 37.9727 48.4164 38.607C47.7469 39.1355 47.1831 39.9107 47.8173 40.7564C48.3811 41.5317 49.5087 40.8974 50.6716 40.3688C51.8344 39.8403 53.103 39.4174 54.0192 40.686C55.0058 42.025 54.1249 43.5402 52.9973 44.3859C51.5878 45.4431 49.8964 45.6545 48.7335 44.1393L49.544 43.5402C50.3192 44.5973 51.5878 44.3859 52.5039 43.6812C53.2792 43.1174 53.9135 42.2717 53.2087 41.3555C52.5744 40.5098 51.4468 41.0736 50.284 41.6022C49.1211 42.1307 47.8878 42.5888 47.0421 41.4612C46.0555 40.1926 46.7954 38.7479 47.923 37.9022C49.1916 36.9155 50.6363 36.8098 51.6935 38.1489L50.9183 38.7127Z" fill="#FFFCF6"/>
<path d="M57.5407 39.6998L58.5983 39.1358L59.1624 40.1933L58.1048 40.7574L57.5407 39.6998Z" fill="#FFFCF6"/>
<path d="M65.1185 29.0224L67.8671 28.2472C68.5366 28.071 69.4175 27.8243 69.9108 27.9653C70.4746 28.1062 71.0385 28.5291 71.2499 29.3043C71.4965 30.1148 71.2146 30.8195 70.5804 31.3129C71.567 31.2424 72.2718 31.8062 72.5184 32.7576C72.8356 33.85 72.307 35.1538 70.827 35.5766L67.1975 36.5985L65.1185 29.0224ZM67.9728 35.4005L70.5099 34.6957C71.3908 34.449 71.7784 33.7795 71.567 32.9338C71.2851 31.9471 70.4042 31.9119 69.5585 32.1233L67.268 32.7929L67.9728 35.4005ZM67.0213 31.9824L69.0299 31.4538C70.1927 31.1367 70.5099 30.6081 70.2985 29.8329C70.0166 28.7757 69.2413 28.8462 68.3604 29.0929L66.3518 29.6215L67.0213 31.9824Z" fill="#FFFCF6"/>
<path d="M77.7332 26.3451L78.896 26.2394L82.6664 33.745L81.5036 33.8507L80.4464 31.5955L77.1693 31.9126L76.4998 34.344L75.4075 34.4497L77.7332 26.3451ZM77.3808 30.9964L80.0236 30.7498L78.3674 27.2613L77.3808 30.9964Z" fill="#FFFCF6"/>
<path d="M85.9439 25.9551L87.0362 26.0608L90.5953 32.7207L91.1238 26.4132L92.1105 26.4837L91.4762 34.3064L90.3486 34.2359L86.7896 27.6465L86.261 33.8836L85.2744 33.8131L85.9439 25.9551Z" fill="#FFFCF6"/>
<path d="M97.079 27.3663L98.0656 27.6482L97.0437 31.4186L101.907 28.6701L103.175 29.0225L99.158 31.2072L101.237 36.5986L99.9685 36.2462L98.2771 31.6653L96.6914 32.4758L95.9514 35.1186L94.9647 34.8367L97.079 27.3663Z" fill="#FFFCF6"/>
<path d="M112.443 33.0741L113.324 33.6027L111.562 36.4922L115.086 38.6064L116.848 35.7169L117.729 36.2455L113.641 42.9407L112.76 42.4121L114.628 39.3464L111.104 37.2322L109.236 40.2978L108.355 39.7693L112.443 33.0741Z" fill="#FFFCF6"/>
<path d="M124.423 41.3904C126.255 43.0818 125.868 45.3723 124.423 46.9579C122.978 48.5436 120.758 49.1426 118.891 47.4865C117.023 45.8303 117.446 43.5047 118.891 41.919C120.335 40.3333 122.555 39.7343 124.423 41.3904ZM119.49 46.817C120.899 48.0855 122.626 47.416 123.648 46.2532C124.67 45.0904 125.234 43.3285 123.824 42.06C122.415 40.7914 120.688 41.4609 119.666 42.6238C118.644 43.7866 118.08 45.5484 119.49 46.817Z" fill="#FFFCF6"/>
<path d="M130.448 49.3892L128.863 47.3102L129.532 46.7817L133.373 51.7502L132.704 52.2787L131.118 50.1997L125.621 54.4282L124.987 53.5825L130.448 49.3892Z" fill="#FFFCF6"/>
<path d="M135.524 55.1678L138.096 59.9248L137.321 60.3476L135.242 56.5068L133.057 57.7048L134.996 61.2638L134.22 61.6866L132.282 58.1277L129.921 59.4315L132.036 63.3076L131.26 63.7304L128.653 58.9381L135.524 55.1678Z" fill="#FFFCF6"/>
<path d="M139.857 64.0132L140.209 64.9999L133.655 67.3256L135.03 71.237L134.184 71.5189L132.457 66.6208L139.857 64.0132Z" fill="#FFFCF6"/>
</g>
<path d="M69.953 83.4011C68.8495 83.2481 68.1269 82.1602 68.4132 81.083C68.6805 80.0777 69.7682 79.5383 70.7309 79.9338L83.8688 85.3304L69.953 83.4011Z" fill="#FCD043"/>
<path d="M85.7001 71.4532C85.8484 70.3258 86.9523 69.5894 88.0494 69.8857C89.0735 70.1624 89.6248 71.277 89.2228 72.2581L83.8778 85.3028L85.7001 71.4532Z" fill="#FCD043"/>
<path d="M75.4274 74.1256C74.7437 73.2274 74.9948 71.9387 75.9622 71.3813C76.8651 70.8612 78.0261 71.2601 78.4344 72.2308L83.928 85.2925L75.4274 74.1256Z" fill="#FCD043"/>
<path d="M95.047 76.7848C95.9395 76.1042 97.2324 76.3713 97.8006 77.3536C98.3308 78.2704 97.9436 79.4381 96.9759 79.8404L83.9279 85.2645L95.047 76.7848Z" fill="#FCD043"/>
<path d="M97.7654 87.2237C98.8689 87.3767 99.5915 88.4645 99.3052 89.5417C99.0379 90.5471 97.9502 91.0865 96.9875 90.691L83.8497 85.2944L97.7654 87.2237Z" fill="#FCD043"/>
<path d="M82.0183 99.1715C81.87 100.299 80.7661 101.035 79.6689 100.739C78.6449 100.462 78.0936 99.3477 78.4956 98.3667L83.8406 85.3219L82.0183 99.1715Z" fill="#FCD043"/>
<path d="M92.4048 96.4391C93.0886 97.3373 92.8374 98.626 91.87 99.1834C90.9671 99.7035 89.8062 99.3046 89.3979 98.3339L83.9041 85.2722L92.4048 96.4391Z" fill="#FCD043"/>
<path d="M72.787 93.7738C71.8945 94.4544 70.6016 94.1873 70.0334 93.205C69.5031 92.2882 69.8904 91.1205 70.8581 90.7182L83.9061 85.2941L72.787 93.7738Z" fill="#FCD043"/>
</svg>